<?xml version="1.0" standalone="no"?>
<!DOCTYPE svg PUBLIC "-//W3C//DTD SVG 20010904//EN"
 "http://www.w3.org/TR/2001/REC-SVG-20010904/DTD/svg10.dtd">
<svg version="1.0" xmlns="http://www.w3.org/2000/svg"
 width="264.000000pt" height="264.000000pt" viewBox="0 0 264.000000 264.000000"
 preserveAspectRatio="xMidYMid meet">
<metadata>
Created by potrace 1.11, written by Peter Selinger 2001-2013
</metadata>
<g transform="translate(0.000000,264.000000) scale(0.100000,-0.100000)"
fill="#000000" stroke="none">
<path d="M1569 2026 c-2 -2 -29 -7 -59 -11 -30 -4 -69 -13 -87 -20 -17 -7 -33
-11 -36 -9 -13 13 -394 -133 -457 -176 -14 -10 -36 -21 -50 -25 -25 -8 -221
-114 -230 -125 -3 -3 -16 -11 -30 -17 -14 -7 -47 -26 -75 -43 -27 -16 -65 -37
-83 -46 -17 -9 -32 -20 -32 -25 0 -5 -9 -9 -20 -9 -11 0 -20 -4 -20 -10 0 -5
-6 -10 -14 -10 -8 0 -21 -6 -28 -13 -7 -6 -38 -25 -68 -40 -179 -91 -203 -135
-139 -254 50 -94 93 -163 101 -163 4 0 8 -5 8 -11 0 -6 21 -32 48 -58 26 -25
60 -67 76 -93 16 -26 32 -46 35 -46 3 1 22 -2 41 -5 19 -4 55 -9 80 -12 25 -3
56 -7 70 -9 23 -4 119 -14 195 -21 17 -2 53 -6 80 -9 28 -3 66 -8 85 -10 19
-3 73 -7 120 -11 47 -3 103 -8 125 -11 22 -2 84 -6 138 -9 53 -2 101 -6 105
-8 22 -12 582 -15 727 -4 121 9 253 40 318 75 26 14 45 27 43 29 -2 3 4 13 15
24 22 22 25 67 5 112 -14 32 -126 158 -126 142 0 -25 -32 40 -39 80 -6 34 -5
49 5 59 7 8 10 16 7 20 -4 3 -1 6 5 6 7 0 12 7 12 15 0 8 3 15 8 15 8 0 28 42
37 81 14 57 -60 171 -212 327 -35 36 -63 69 -63 75 0 6 -2 8 -5 5 -3 -3 -29
17 -58 44 -29 27 -72 62 -97 78 -25 16 -51 34 -57 40 -7 6 -13 7 -13 3 0 -4
-4 -3 -8 3 -6 10 -79 51 -92 52 -3 0 -18 6 -35 13 -28 11 -247 24 -256 15z
m225 -301 l49 3 -6 -57 c-11 -104 -23 -128 -79 -157 -40 -21 -79 -17 -121 11
-44 30 -66 77 -69 149 l-3 51 62 0 c34 0 64 3 68 7 4 4 17 3 29 -2 12 -4 44
-7 70 -5z m71 -396 c33 -1 76 -6 95 -10 19 -4 58 -10 85 -13 47 -5 184 -41
267 -68 37 -13 40 -16 52 -85 4 -19 2 -21 -17 -13 -20 8 -41 15 -59 19 -4 1
-22 7 -40 12 -31 10 -44 13 -93 24 -11 2 -29 6 -41 9 -12 2 -45 7 -75 11 -30
3 -72 8 -94 11 -47 7 -341 7 -370 1 -11 -3 -54 -8 -95 -12 -41 -4 -85 -11 -98
-16 -12 -5 -26 -8 -30 -7 -9 2 -119 -17 -124 -22 -2 -1 -10 -3 -18 -5 -32 -6
-109 -27 -187 -52 -46 -13 -89 -26 -95 -27 -7 -2 -24 -8 -38 -14 -14 -6 -68
-27 -120 -48 -52 -20 -98 -42 -102 -48 -4 -6 -8 -8 -8 -4 0 8 -129 -50 -150
-68 -8 -7 -19 -13 -25 -13 -5 -1 -17 -6 -25 -13 -29 -24 -47 -19 -73 21 l-26
40 32 19 c114 71 407 196 582 250 153 47 328 88 420 98 22 3 47 7 55 10 8 3
73 8 145 11 71 3 131 7 133 8 2 2 20 1 40 -1 20 -1 64 -4 97 -5z m-1641 -215
c3 -8 2 -12 -4 -9 -6 3 -10 10 -10 16 0 14 7 11 14 -7z"/>
</g>
</svg>
